<svg height="512pt" viewBox="0 0 512.00085 512" width="512pt" xmlns="http://www.w3.org/2000/svg"><path d="m397.089844 381.957031c34.066406-61.558593 21.449218-125.449219 21.449218-125.449219h-40.691406c0 61.492188-81.699218 125.449219-81.699218 125.449219zm0 0" fill="#ce8859"/><path d="m178.429688 339s-34.230469-11.179688-55.066407-49.121094l-29.472656-20.15625-12.195313 20.148438s-6.605468 39.53125 24.394532 80.980468l61.996094 11.109376 23.375-33.976563zm0 0" fill="#ce8859"/><path d="m336.800781 381.957031c-34.554687-33.46875 5.589844-60.230469-12.703125-146.453125l-44.71875-21.171875-28.460937 21.171875s-6.605469 30.589844-43.703125 62.640625c-37.09375 32.050781-39.128906 83.8125-39.128906 83.8125zm0 0" fill="#eaa075"/><path d="m259.558594 386.964844-192.507813 25.332031c9.703125 26.996094 25.417969 59.03125 49.707031 80.839844 8.183594 7.351562 18.855469 11.292969 29.839844 11.292969h225.917969c10.988281 0 21.660156-3.941407 29.839844-11.292969 24.292969-21.808594 40.003906-53.84375 49.710937-80.839844zm0 0" fill="#454f59"/><path d="m107.050781 412.296875 172.507813-22.699219-20-2.632812-192.507813 25.332031c9.703125 26.996094 25.417969 59.03125 49.707031 80.839844 8.183594 7.351562 18.855469 11.292969 29.839844 11.292969h40c-10.984375 0-21.65625-3.941407-29.839844-11.292969-24.289062-21.808594-40.003906-53.84375-49.707031-80.839844zm0 0" fill="#363f50"/><path d="m461.558594 381.136719c-2.164063 8.585937-5.253906 19.390625-9.492188 31.160156h-385.015625c-4.238281-11.769531-7.328125-22.574219-9.496093-31.160156-2.488282-9.898438 5-19.503907 15.214843-19.503907h373.574219c10.214844 0 17.707031 9.605469 15.214844 19.503907zm0 0" fill="#ffd46a"/><path d="m112.769531 361.632812h-40c-10.210937 0-17.703125 9.601563-15.214843 19.503907 2.167968 8.585937 5.257812 19.390625 9.496093 31.160156h40c-4.238281-11.769531-7.328125-22.574219-9.496093-31.160156-2.488282-9.898438 5-19.503907 15.214843-19.503907zm0 0" fill="#ffa92d"/><path d="m417.371094 235.503906c31.753906 0 58.667968-25.976562 58.671875-57.734375.003906-20.5625-10.746094-38.613281-26.929688-48.84375-4.621093-2.921875-7.394531-7.964843-7.386719-13.433593 0-.03125 0-.0625 0-.09375 0-34.261719-27.773437-62.035157-62.035156-62.035157-.226562 0-.457031.003907-.683594.003907-12.894531.140624-24.957031-5.859376-32.890624-16.023438-14.1875-18.160156-36.285157-29.84375-61.121094-29.84375-21.609375 0-41.148438 8.84375-55.203125 23.105469-15.121094 15.347656-35.914063 23.417969-57.453125 22.789062-.609375-.019531-1.226563-.027343-1.839844-.027343-34.261719 0-62.035156 27.773437-62.035156 62.03125v.097656c.007812 5.46875-2.765625 10.507812-7.386719 13.429687-16.183594 10.234375-26.933594 28.285157-26.929687 48.847657.003906 31.757812 26.917968 57.734374 58.671874 57.734374h284.550782zm0 0" fill="#95df72"/><path d="m450.980469 152.964844c-.035157 0-.136719-.046875-.265625-.15625-14.820313-12.566406-33.691406-19.488282-53.140625-19.488282-34.789063 0-64.601563 21.726563-76.574219 52.324219-.390625.023438-.777344.050781-1.164062.082031-28.488282 2.265626-52.160157 22.84375-59.183594 49.777344h156.71875c31.753906 0 58.664062-25.976562 58.671875-57.734375 0-7.9375-1.605469-15.5-4.503907-22.386719-6.464843-1.589843-13.167968-2.421874-20.003906-2.421874zm0 0" fill="#69d283"/><path d="m451.535156 182.964844c-.117187 0-.234375 0-.351562 0-7.304688.046875-14.300782-2.554688-19.871094-7.277344-9.097656-7.714844-20.875-12.367188-33.734375-12.367188-28.828125 0-52.195313 23.367188-52.195313 52.191407v.066406c.003907 2.589844-2.628906 4.289063-4.988281 3.214844-5.472656-2.492188-11.664062-3.679688-18.179687-3.160157-17.925782 1.421876-32.351563 16.003907-33.601563 33.941407-1.492187 21.453125 15.46875 39.316406 36.601563 39.316406h125.449218c29.042969 0 53.34375-23.019531 53.828126-52.058594.496093-29.664062-23.402344-53.867187-52.957032-53.867187zm0 0" fill="#a1df80"/><path d="m194.082031 188.757812c-12.769531-13.265624-29.351562-21.363281-47.371093-23.292968-14.789063-15.6875-35.664063-24.839844-57.394532-24.839844-.558594 0-1.113281.027344-1.667968.039062-8.425782 10.035157-13.5 22.976563-13.5 37.105469.003906 31.757813 26.917968 57.734375 58.671874 57.734375h82.585938c-1.542969-17.53125-8.914062-33.855468-21.324219-46.746094zm0 0" fill="#69d283"/><path d="m139.945312 289.878906c24.664063-.84375 44.8125-20.90625 45.75-45.566406 1.027344-27.046875-20.59375-49.292969-47.410156-49.292969-.023437 0-.042968 0-.066406 0-3.863281.007813-7.519531-1.71875-9.835938-4.808593-8.894531-11.886719-23.078124-19.585938-39.066406-19.585938-26.941406 0-48.785156 21.84375-48.785156 48.785156v.042969c0 2.109375-1.550781 3.867187-3.648438 4.109375-16.855468 1.96875-29.867187 16.53125-29.371093 34.03125.492187 17.21875 14.394531 31.429688 31.597656 32.273438zm0 0" fill="#95df72"/><path d="m202.914062 141.40625c4.140626 0 7.5-3.359375 7.5-7.5v-13.066406c0-4.140625-3.359374-7.5-7.5-7.5-4.144531 0-7.5 3.359375-7.5 7.5v13.066406c0 4.140625 3.355469 7.5 7.5 7.5zm0 0"/><path d="m347.277344 141.40625c4.144531 0 7.5-3.359375 7.5-7.5v-13.066406c0-4.140625-3.355469-7.5-7.5-7.5-4.140625 0-7.5 3.359375-7.5 7.5v13.066406c0 4.140625 3.359375 7.5 7.5 7.5zm0 0"/><path d="m275.097656 148.378906c9.105469 0 17.65625-3.808594 23.460938-10.445312 2.726562-3.121094 2.40625-7.859375-.710938-10.585938-3.117187-2.722656-7.855468-2.40625-10.582031.710938-2.957031 3.378906-7.390625 5.320312-12.167969 5.320312-4.78125 0-9.214844-1.941406-12.171875-5.320312-2.726562-3.117188-7.464843-3.4375-10.582031-.710938-3.121094 2.726563-3.4375 7.464844-.710938 10.582032 5.804688 6.640624 14.355469 10.449218 23.464844 10.449218zm0 0"/><path d="m446.34375 369.132812c5.246094 0 9.222656 5.082032 7.941406 10.167969-2.175781 8.644531-4.707031 17.195313-7.535156 25.496094h-53.808594c-4.140625 0-7.5 3.359375-7.5 7.5s3.359375 7.5 7.5 7.5h48.25c-11.699218 29.113281-26.746094 52.40625-43.847656 67.761719-6.726562 6.042968-15.546875 9.371094-24.828125 9.371094h-165.574219c-4.140625 0-7.5 3.359374-7.5 7.5 0 4.140624 3.359375 7.5 7.5 7.5h165.574219c12.988281 0 25.363281-4.691407 34.851563-13.210938 32.921874-29.5625 50.867187-73.707031 61.464843-115.753906 3.636719-14.4375-7.644531-28.835938-22.488281-28.835938h-28.894531c7.269531-21.699218 9.898437-42.160156 10.628906-57.738281h22.585937c33.269532 0 60.78125-26.664063 61.328126-59.433594.273437-16.355469-5.886719-31.777343-17.34375-43.425781-3.492188-3.550781-7.347657-6.609375-11.472657-9.152344.234375-2.210937.367188-4.417968.367188-6.605468.003906-22.511719-11.367188-43.144532-30.421875-55.1875-2.4375-1.542969-3.890625-4.179688-3.894532-7.058594 0-.050782 0-.097656 0-.128906 0-38.339844-31.191406-69.535157-69.535156-69.535157-10.855468.0625-20.929687-4.511719-27.664062-13.132812-16.246094-20.800781-40.675782-32.730469-67.03125-32.730469-22.941406 0-44.441406 9-60.546875 25.339844-14.5625 14.78125-33.660157 20.527344-53.949219 20.527344-38.34375 0-69.535156 31.191406-69.535156 69.53125v.105468c.003906 2.890625-1.453125 5.539063-3.894532 7.082032-15.867187 10.03125-26.667968 26.589843-29.589843 44.960937-19.375 8.191406-33.253907 26.929687-34.375 49.011719-19.621094 3.699218-33.664063 20.9375-33.089844 41.246094.605469 21.144531 17.613281 38.519531 38.730469 39.554687.121094.003906.242187.007813.363281.007813l34.523437.003906c-.242187 11.40625 1.367188 32.746094 13.34375 56.761718 0 0-14.191406 0-14.207031 0-14.867187 0-26.113281 14.417969-22.488281 28.835938 10.578125 41.960938 28.585938 86.226562 61.464844 115.75 9.488281 8.519531 21.863281 13.210938 34.851562 13.210938h30.34375c4.144532 0 7.5-3.355469 7.5-7.5 0-4.140626-3.355468-7.5-7.5-7.5h-30.339844c-9.285156 0-18.101562-3.328126-24.832031-9.371094-17.097656-15.355469-32.144531-38.644532-43.84375-67.761719h285.019531c4.027344 0 7.5-3.472656 7.5-7.5 0-4.140625-3.359374-7.5-7.5-7.5h-290.578124c-2.828126-8.296875-5.359376-16.847656-7.539063-25.488281-1.28125-5.089844 2.722656-10.175782 7.941406-10.175782zm-356.992188-57.898437c-.699218-5.65625-.804687-10.398437-.714843-13.859375l30.382812.003906c16.140625 26.972656 38.414063 40.308594 49.785157 45.714844-1.359376 3.8125-2.5 7.511719-3.457032 11.023438 0 .003906-.003906.011718-.003906.015624h-61.339844c-9.765625-16.84375-13.367187-32.472656-14.652344-42.898437zm103.839844-66.636719c.019532-.53125.015625-1.0625.019532-1.59375h47.132812c-4.671875 10.820313-15.347656 29.867188-38.03125 49.464844-12.683594 10.960938-21.53125 23.992188-27.703125 36.738281-8.5625-4.191406-24.46875-13.78125-37.605469-31.828125h2.941406c.085938 0 .171876 0 .257813-.003906 28.625-.976562 51.898437-24.160156 52.988281-52.777344zm-12.210937 109.535156c.71875-2.359374 3.726562-10.636718 4.410156-12.355468 5.441406-13.015625 13.820313-26.808594 26.726563-37.957032 29.261718-25.28125 40.511718-49.851562 44.363281-60.816406h25.503906c-.007813.023438-.007813.042969-.011719.066406-.425781 1.964844-.699218 3.980469-.839844 5.984376-1.648437 23.621093 16.328126 44.898437 39.925782 47.140624-.777344 10.324219-2.230469 19.371094-3.542969 27.539063-1.769531 11.027344-3.363281 20.9375-2.601563 30.394531h-133.933593zm178.558593-57.742187c-7.730468 15.402344-18.574218 29.894531-29.035156 41.925781.476563-3.804687 1.125-7.855468 1.820313-12.203125 1.402343-8.726562 2.957031-18.417969 3.757812-29.722656zm42.023438 57.742187h-65.070312c14.082031-15.394531 29.960937-35.765624 39.625-57.742187h36.945312c-.785156 15.566406-3.589844 36.183594-11.5 57.742187zm95.433594-117.425781c-.414063 24.640625-21.195313 44.683594-46.332032 44.683594 0 0-125.410156 0-125.449218 0-16.132813 0-29.496094-13.664063-29.1875-29.757813.28125-14.535156 12.273437-27.363281 26.78125-28.523437 6.65625-.535156 12.535156 3.511719 19.070312 3.511719 5.976563 0 10.96875-5.09375 11-11.03125 0-.027344.003906-.050782.003906-.078125 0-24.644531 20.050782-44.691407 44.691407-44.691407 10.574219 0 20.832031 3.757813 28.886719 10.585938 6.804687 5.769531 15.59375 9.058594 24.527343 9.058594 7.066407 0 14.234375 1.519531 20.679688 4.695312.046875.023438.101562.039063.148437.0625 15.640625 7.355469 25.460938 24.417969 25.179688 41.484375zm-391.910156-101.441406c6.824218-4.316406 10.890624-11.710937 10.878906-19.867187 0-30.070313 24.464844-54.53125 54.535156-54.53125 22.542969 0 43.667969-6.019532 60.765625-21.308594 15.871094-14.195313 31.597656-24.558594 53.730469-24.558594 21.703125 0 41.828125 9.828125 55.210937 26.960938 9.496094 12.164062 24.128907 18.992187 39.484375 18.90625 30.0625 0 54.515625 24.445312 54.535156 54.507812v.105469c-.011718 8.074219 4.054688 15.46875 10.878907 19.785156 14.679687 9.277344 23.441406 25.167969 23.4375 42.503906v.113281c-.113281-.03125-7.25-1.746093-10.777344-2.101562-7.71875-.785156-15.316406-.484375-21.601563-5.816406-14.027343-11.894532-33.328124-16.679688-51.285156-12.769532-25.046875 5.449219-44.28125 26.660157-46.730468 52.738282-4.558594-1.398438-9.355469-2.039063-14.210938-1.898438-10.765625.304688-21.164062 4.660156-28.988281 12.046875-2.507813 2.363281-4.785157 5.042969-6.683594 7.921875h-96.941406c-2.378907-8.789062-6.941407-16.882812-13.453125-23.644531-9.328125-9.6875-21.527344-15.480469-34.8125-16.621094-2.804688-.246093-6.726563.570313-8.667969-2.023437-10.746094-14.355469-27.171875-22.589844-45.074219-22.589844-1.875 0-3.730468.09375-5.558594.273438 3.453126-11.5 11.003907-21.609376 21.328126-28.132813zm-67.332032 95.75c5.867188-.683594 10.285156-5.660156 10.277344-11.601563-.023438-22.394531 18.929688-41.285156 41.285156-41.285156 13.128906 0 25.179688 6.042969 33.0625 16.578125 3.710938 4.957031 9.738282 7.8125 15.90625 7.8125 22.066406 0 40.753906 19.449219 39.914063 41.511719-.789063 20.753906-17.636719 37.578125-38.386719 38.351562l-100.507812-.015624c-13.257813-.738282-23.914063-11.679688-24.292969-24.988282-.382813-13.472656 9.394531-24.804687 22.742187-26.363281zm0 0"/></svg>