<?xml version="1.0" encoding="iso-8859-1"?>
<!-- Generator: Adobe Illustrator 19.0.0, SVG Export Plug-In . SVG Version: 6.00 Build 0)  -->
<svg version="1.1" id="Capa_1" xmlns="http://www.w3.org/2000/svg" xmlns:xlink="http://www.w3.org/1999/xlink" x="0px" y="0px"
	 viewBox="0 0 512 512" style="enable-background:new 0 0 512 512;" xml:space="preserve">
<path style="fill:#49C3E0;" d="M462.371,110.685V49.629h-61.057c0,23.267-18.862,42.129-42.129,42.129s-42.129-18.862-42.129-42.129
	H256l0,0l-49.96,118.285L256,256l0,0l103.127,76.434L462.371,256v-61.057c23.267,0,42.129-18.862,42.129-42.129
	S485.638,110.685,462.371,110.685z"/>
<path style="fill:#3AC7B4;" d="M256,256L256,256l-98.395-82.121L49.629,256v61.057c-23.267,0-42.129,18.862-42.129,42.129
	s18.862,42.129,42.129,42.129v61.057h61.057c0-23.267,18.862-42.129,42.129-42.129s42.129,18.862,42.129,42.129H256l48.639-82.121
	L256,256z"/>
<path style="fill:#DA5B65;" d="M462.371,317.057V256h-61.057c0,23.267-18.862,42.129-42.129,42.129S317.056,279.267,317.056,256H256
	v61.057c-23.267,0-42.129,18.862-42.129,42.129s18.862,42.129,42.129,42.129v61.057h61.057c0,23.267,18.862,42.129,42.129,42.129
	s42.129-18.862,42.129-42.129h61.057v-61.057c-23.267,0-42.129-18.862-42.129-42.129S439.104,317.057,462.371,317.057z"/>
<path style="fill:#FFCD38;" d="M256,110.686V49.629h-61.057c0-23.267-18.862-42.129-42.129-42.129s-42.129,18.862-42.129,42.129
	H49.629v61.057c23.267,0,42.129,18.862,42.129,42.129s-18.862,42.129-42.129,42.129V256h61.057
	c0-23.267,18.862-42.129,42.129-42.129s42.129,18.862,42.129,42.129H256v-61.057c23.267,0,42.129-18.862,42.129-42.129
	S279.267,110.686,256,110.686z"/>
<path d="M469.871,103.751V49.629c0-4.143-3.358-7.5-7.5-7.5h-61.057c-4.142,0-7.5,3.357-7.5,7.5
	c0,19.094-15.535,34.629-34.629,34.629s-34.629-15.535-34.629-34.629c0-4.143-3.358-7.5-7.5-7.5H201.878
	C198.252,18.309,177.631,0,152.814,0s-45.438,18.309-49.063,42.129H49.629c-4.142,0-7.5,3.357-7.5,7.5v61.057
	c0,4.142,3.358,7.5,7.5,7.5c19.095,0,34.629,15.534,34.629,34.629c0,19.094-15.535,34.629-34.629,34.629c-4.142,0-7.5,3.357-7.5,7.5
	v115.179C18.309,313.748,0,334.368,0,359.186c0,24.816,18.309,45.438,42.129,49.063v54.122c0,4.142,3.358,7.5,7.5,7.5h61.057
	c4.142,0,7.5-3.358,7.5-7.5c0-19.094,15.535-34.629,34.629-34.629s34.629,15.535,34.629,34.629c0,4.142,3.358,7.5,7.5,7.5h115.179
	C313.748,493.69,334.369,512,359.186,512s45.438-18.31,49.063-42.129h54.122c4.142,0,7.5-3.358,7.5-7.5v-61.056
	c0-4.143-3.358-7.5-7.5-7.5c-19.094,0-34.629-15.535-34.629-34.629c0-19.095,15.535-34.629,34.629-34.629c4.142,0,7.5-3.358,7.5-7.5
	v-115.18C493.691,198.252,512,177.63,512,152.814S493.691,107.377,469.871,103.751z M57.129,201.877
	c23.82-3.625,42.129-24.247,42.129-49.063c0-24.817-18.31-45.438-42.129-49.063V57.129h53.557c4.142,0,7.5-3.358,7.5-7.5
	C118.186,30.534,133.72,15,152.814,15s34.629,15.534,34.629,34.629c0,4.142,3.358,7.5,7.5,7.5H248.5v53.557
	c0,4.142,3.358,7.5,7.5,7.5c19.094,0,34.629,15.534,34.629,34.629c0,19.094-15.535,34.629-34.629,34.629c-4.142,0-7.5,3.357-7.5,7.5
	V248.5h-46.622c-3.626-23.82-24.247-42.129-49.063-42.129s-45.438,18.309-49.063,42.129H57.129V201.877z M152.814,412.742
	c-24.816,0-45.438,18.309-49.063,42.129H57.129v-53.556c0-4.143-3.358-7.5-7.5-7.5C30.535,393.814,15,378.28,15,359.186
	c0-19.095,15.535-34.629,34.629-34.629c4.142,0,7.5-3.358,7.5-7.5V263.5h53.557c4.142,0,7.5-3.358,7.5-7.5
	c0-19.095,15.535-34.629,34.629-34.629s34.629,15.535,34.629,34.629c0,4.142,3.358,7.5,7.5,7.5H248.5v46.622
	c-23.82,3.626-42.129,24.246-42.129,49.063c0,24.816,18.309,45.438,42.129,49.063v46.622h-46.622
	C198.252,431.051,177.631,412.742,152.814,412.742z M454.871,310.122c-23.82,3.626-42.129,24.246-42.129,49.063
	c0,24.816,18.309,45.438,42.129,49.063v46.622h-53.557c-4.142,0-7.5,3.358-7.5,7.5c0,19.094-15.535,34.629-34.629,34.629
	s-34.629-15.535-34.629-34.629c0-4.142-3.358-7.5-7.5-7.5H263.5v-53.556c0-4.143-3.358-7.5-7.5-7.5
	c-19.094,0-34.629-15.535-34.629-34.629c0-19.095,15.535-34.629,34.629-34.629c4.142,0,7.5-3.358,7.5-7.5V263.5h46.622
	c3.626,23.819,24.247,42.129,49.063,42.129s45.438-18.31,49.063-42.129h46.622v46.622H454.871z M462.371,187.443
	c-4.142,0-7.5,3.357-7.5,7.5V248.5h-53.557c-4.142,0-7.5,3.357-7.5,7.5c0,19.094-15.535,34.629-34.629,34.629
	S324.557,275.094,324.557,256c0-4.143-3.358-7.5-7.5-7.5H263.5v-46.623c23.82-3.625,42.129-24.247,42.129-49.063
	c0-24.817-18.309-45.438-42.129-49.063V57.129h46.622c3.626,23.819,24.247,42.129,49.063,42.129s45.438-18.31,49.063-42.129h46.622
	v53.557c0,4.142,3.358,7.5,7.5,7.5c19.094,0,34.629,15.534,34.629,34.629C497,171.909,481.465,187.443,462.371,187.443z"/>
<g>
</g>
<g>
</g>
<g>
</g>
<g>
</g>
<g>
</g>
<g>
</g>
<g>
</g>
<g>
</g>
<g>
</g>
<g>
</g>
<g>
</g>
<g>
</g>
<g>
</g>
<g>
</g>
<g>
</g>
</svg>
