<?xml version="1.0" encoding="iso-8859-1"?>
<!-- Generator: Adobe Illustrator 19.0.0, SVG Export Plug-In . SVG Version: 6.00 Build 0)  -->
<svg version="1.1" id="Capa_1" xmlns="http://www.w3.org/2000/svg" xmlns:xlink="http://www.w3.org/1999/xlink" x="0px" y="0px"
	 viewBox="0 0 512 512" style="enable-background:new 0 0 512 512;" xml:space="preserve">
<path style="fill:#2FC8B4;" d="M431.193,76.433L256.002,41.952L80.809,76.433c0,0-87.391,199.222-26.542,371.302
	c12.079,34.161,44.649,56.795,80.883,56.795h241.701c36.234,0,68.804-22.634,80.883-56.795
	C518.584,275.654,431.193,76.433,431.193,76.433z"/>
<path style="fill:#00AE95;" d="M94.272,447.735C33.423,275.654,120.814,76.433,120.814,76.433l155.19-30.545l-20.002-3.936
	L80.809,76.433c0,0-87.391,199.221-26.542,371.302c12.079,34.161,44.65,56.795,80.883,56.795h40.005
	C138.922,504.53,106.351,481.896,94.272,447.735z"/>
<path style="fill:#F0F0F0;" d="M352.527,146.752H159.476c-17.143,0-31.04,13.897-31.04,31.04v224.281
	c0,17.143,13.897,31.04,31.04,31.04h193.051c17.143,0,31.04-13.897,31.04-31.04V177.792
	C383.567,160.649,369.67,146.752,352.527,146.752z"/>
<path style="fill:#00AE95;" d="M261.626,323.106c-114.205-16.267-89.127-77.267-106.072-115.899c0,0,51.511-12.877,88.788,22.367
	S261.626,323.106,261.626,323.106z"/>
<path style="fill:#2FC8B4;" d="M250.376,374.956c114.205-16.267,89.127-77.267,106.072-115.899c0,0-51.511-12.878-88.788,22.367
	S250.376,374.956,250.376,374.956z"/>
<path style="fill:#F0F0F0;" d="M392.624,12.448c-0.121,0.068-0.242,0.136-0.362,0.205l0,0c-12.057,6.909-26.874,6.909-38.931,0
	c-12.057-6.909-26.874-6.909-38.932,0l0,0c-12.057,6.909-26.874,6.909-38.931,0l0,0c-12.057-6.909-26.874-6.909-38.931,0l0,0
	c-12.057,6.909-26.874,6.909-38.931,0s-26.874-6.909-38.931,0s-26.874,6.909-38.931,0l0,0c-0.121-0.069-0.241-0.137-0.362-0.205
	C102.101,2.79,80.81,15.582,80.81,35.377v41.056h350.383V35.377C431.193,15.582,409.903,2.79,392.624,12.448z"/>
<path style="fill:#D9D9D9;" d="M128.917,16.45c-3.167-0.863-6.254-2.122-9.176-3.796l0,0c-0.121-0.069-0.241-0.137-0.363-0.205
	c-17.279-9.658-38.568,3.134-38.568,22.93v41.056h40.005V35.377C120.814,27.719,124.008,21.118,128.917,16.45z"/>
<path d="M352.527,139.222h-30.858c-4.142,0-7.501,3.358-7.501,7.501s3.358,7.501,7.501,7.501h30.858
	c12.979,0,23.54,10.559,23.54,23.54v224.28c0,12.979-10.56,23.54-23.54,23.54H159.476c-12.979,0-23.539-10.56-23.539-23.54V177.763
	c0-12.981,10.56-23.54,23.539-23.54h132.19c4.142,0,7.501-3.358,7.501-7.501s-3.358-7.501-7.501-7.501h-132.19
	c-21.251,0-38.54,17.29-38.54,38.541v224.28c0,21.251,17.289,38.54,38.54,38.54h193.051c21.251,0,38.541-17.289,38.541-38.54
	v-224.28C391.068,156.511,373.778,139.222,352.527,139.222z"/>
<path d="M464.807,450.206c14.157-40.036,21.543-84.8,21.953-133.049c0.326-38.447-3.751-79.192-12.121-121.102
	c-13.062-65.404-32.175-112.296-35.944-121.193c0,0,0-39.485,0-39.514c0-24.953-27.806-41.73-49.727-29.479l-0.435,0.246
	c-9.7,5.494-21.783,5.554-31.474,0c-14.232-8.155-32.16-8.152-46.389,0c-9.657,5.533-21.818,5.532-31.474,0
	c-14.233-8.154-32.159-8.152-46.389,0c-9.658,5.533-21.819,5.533-31.475,0c-14.23-8.154-32.162-8.151-46.389,0
	c-9.654,5.531-21.823,5.53-31.474,0.001l-0.432-0.245c-22.023-12.471-49.73,4.56-49.73,29.477v39.514
	c-3.769,8.897-22.883,55.789-35.944,121.193c-8.369,41.91-12.447,82.655-12.121,121.102c0.41,48.25,7.796,93.014,21.953,133.049
	C60.263,487.168,95.609,512,135.149,512H376.85C416.391,512,451.738,487.168,464.807,450.206z M88.31,35.348
	c0-11.562,9.659-18.719,18.607-18.719c3.065,0,6.027,0.786,8.805,2.339l0.29,0.164c14.293,8.085,32.114,8.178,46.389,0
	c9.656-5.534,21.819-5.532,31.474,0c14.229,8.152,32.165,8.149,46.389,0c9.658-5.533,21.817-5.534,31.474,0
	c14.226,8.151,32.168,8.147,46.389,0c9.658-5.533,21.818-5.533,31.475,0c14.232,8.154,32.159,8.153,46.389,0l0.293-0.166
	c12.116-6.847,27.408,2.685,27.408,16.382v33.555H88.31V35.348z M376.853,496.999H135.151c-33.195,0-62.857-20.814-73.812-51.794
	c-13.582-38.408-20.678-81.462-21.092-127.966c-0.333-37.373,3.622-77.039,11.759-117.896
	C63.507,141.591,80.258,97.625,85.814,83.904h340.378c5.543,13.679,22.221,57.428,33.735,115.088
	c8.168,40.903,12.148,80.616,11.831,118.037c-0.396,46.585-7.493,89.709-21.095,128.176
	C439.709,476.184,410.046,496.999,376.853,496.999z"/>
<path d="M243.281,377.359c0.005,0.016,0.014,0.029,0.019,0.044c1.158,3.258,4.708,5.421,8.134,4.948
	c92.576-13.185,99.483-56.749,105.033-91.752c1.653-10.426,3.215-20.273,6.85-28.561c0.888-2.023,0.838-4.335-0.136-6.318
	c-0.973-1.983-2.771-3.436-4.915-3.972c-0.411-0.103-10.243-2.52-24.419-2.52c-16.877,0-40.15,3.428-61.175,18.37
	c-3.284-17.429-11.036-32.029-23.177-43.507c-23.353-22.079-51.686-26.713-71.341-26.713c-14.179,0-24.008,2.417-24.42,2.52
	c-2.143,0.536-3.94,1.989-4.915,3.972c-0.974,1.983-1.022,4.294-0.136,6.317c3.635,8.287,5.197,18.134,6.851,28.56
	c5.044,31.799,11.284,71.133,82.742,87.657c-0.577,4.864-0.831,9.901-0.738,15.104C237.896,361.44,243.062,376.719,243.281,377.359z
	 M346.365,264.95c-2.22,7.572-3.481,15.53-4.714,23.301c-2.615,16.491-5.319,33.544-17.063,47.434
	c-12.278,14.522-33.452,24.4-64.53,30.073c4.383-16.462,16.22-48.741,44.417-66.244c3.519-2.185,4.602-6.81,2.417-10.329
	c-2.185-3.52-6.81-4.603-10.329-2.417c-22.893,14.211-36.315,36.14-44.006,54.447c-0.209-12.121,1.621-26.112,8.397-38.814
	c3.039-5.697,7.132-11.082,11.859-15.559c19.767-18.689,44.102-22.612,61.035-22.612
	C338.707,264.231,342.979,264.556,346.365,264.95z M185.425,281.335c-10.064-13.368-12.61-29.416-15.072-44.937
	c-1.233-7.772-2.496-15.733-4.717-23.306c15.042-1.739,48.081-2.183,73.553,21.902c11.726,11.085,18.431,25.992,19.957,44.342
	c-0.784,0.839-2.794,3.168-2.831,3.212c-7.958-16.533-20.747-35.135-40.875-47.63c-3.52-2.186-8.145-1.103-10.329,2.416
	c-2.185,3.52-1.103,8.145,2.417,10.329c20.678,12.835,32.524,33.652,39.018,49.922c-2.188,4.435-3.992,9.132-5.392,14.091
	C214.334,305.424,196.064,295.465,185.425,281.335z"/>
<g>
</g>
<g>
</g>
<g>
</g>
<g>
</g>
<g>
</g>
<g>
</g>
<g>
</g>
<g>
</g>
<g>
</g>
<g>
</g>
<g>
</g>
<g>
</g>
<g>
</g>
<g>
</g>
<g>
</g>
</svg>
