<svg height="512pt" viewBox="0 -8 512.00214 512" width="512pt" xmlns="http://www.w3.org/2000/svg"><path d="m239.835938 146.960938c0-109.070313-55.09375-125.339844-116.253907-125.339844-28.589843 0-54.0625-2.09375-73.085937-4.320313-20.542969-2.40625-38.921875 12.773438-40.445313 33.398438-1.5 20.277343-2.722656 50.757812-2.722656 96.261719zm0 0" fill="#596673"/><path d="m504.191406 45.648438c0 21.066406-17.078125 38.144531-38.144531 38.144531s-38.144531-17.078125-38.144531-38.144531c0-21.066407 17.078125-38.144532 38.144531-38.144532s38.144531 17.078125 38.144531 38.144532zm0 0" fill="#e5ca61"/><path d="m272.160156 146.964844c0-62.136719 52.046875-112.503906 116.25-112.503906 61.78125 0 112.328125 46.640624 116.035156 105.535156zm0 0" fill="#f9db69"/><path d="m7.328125 146.960938h30.019531c0-45.503907 1.222656-75.984376 2.722656-96.261719 1.128907-15.210938 11.421876-27.449219 24.984376-31.867188-4.859376-.457031-9.710938-.964843-14.558594-1.53125-20.253906-2.367187-38.941406 13.074219-40.445313 33.398438-.308593 4.167969-.574219 8.339843-.808593 12.511719-1.109376 19.722656-1.914063 46.777343-1.914063 83.75zm0 0" fill="#4b5866"/><path d="m123.582031 82.003906c-115.628906 0-116.253906 64.957032-116.253906 64.957032 0 62.132812 52.046875 112.503906 116.253906 112.503906 64.203125 0 116.253907-50.371094 116.253907-112.503906 0 0-.625-64.957032-116.253907-64.957032zm0 0" fill="#fac4ae"/><path d="m123.597656 259.464844c2.679688 0 5.359375-.09375 8.03125-.273438 2.324219-.148437 4.648438-.367187 6.960938-.65625-57.113282-7.125-101.242188-54.363281-101.242188-111.574218 0-17.277344.175782-32.382813.476563-45.59375-30.234375 19.140624-30.496094 45.59375-30.496094 45.59375 0 15.960937 3.511719 31.839843 10.269531 46.300781 3.480469 7.449219 7.796875 14.507812 12.824219 21.011719 21.203125 27.433593 55.039063 45.191406 93.175781 45.191406zm0 0" fill="#e2b09a"/><path d="m403.40625 35.394531c-2.375-.296875-4.773438-.519531-7.191406-.675781-2.597656-.167969-5.203125-.257812-7.804688-.257812-64.203125 0-116.25 50.367187-116.25 112.503906l30.03125-.898438c.460938-56.804687 44.410156-103.574218 101.214844-110.671875zm0 0" fill="#e5ca61"/><path d="m504.671875 146.964844c0 31.070312-13.007813 59.195312-34.054687 79.546875-21.035157 20.363281-50.109376 32.957031-82.207032 32.957031-64.203125 0-116.25-50.375-116.25-112.503906 0 0 37.546875-46.4375 86.644532-46.4375 35.585937 0 64.246093-5.203125 77.324218-8.058594 4.546875-.988281 9.242188.78125 11.980469 4.546875 8.164063 11.21875 27.707031 34.132813 56.335937 42.980469.15625 2.304687.226563 4.628906.226563 6.96875zm0 0" fill="#fac4ae"/><path d="m392.886719 259.386719c3.242187-.125 7.347656-1.253907 10.535156-.847657-57.113281-7.128906-101.242187-54.367187-101.242187-111.574218 0-10.226563 1.417968-20.136719 4.0625-29.554688-20.925782 13.28125-34.082032 29.554688-34.082032 29.554688 0 32.035156 13.835938 60.945312 36.042969 81.4375 21.695313 20.015625 50.738281 31.066406 80.207031 31.066406 1.492188 0 2.984375-.027344 4.476563-.082031zm0 0" fill="#e2b09a"/><g fill="#ff7f85"><path d="m186.3125 179.996094h-14.671875c-4.144531 0-7.503906-3.359375-7.503906-7.503906 0-4.144532 3.359375-7.503907 7.503906-7.503907h14.671875c4.144531 0 7.503906 3.359375 7.503906 7.503907 0 4.144531-3.359375 7.503906-7.503906 7.503906zm0 0"/><path d="m75.523438 179.996094h-14.671876c-4.144531 0-7.503906-3.359375-7.503906-7.503906 0-4.144532 3.359375-7.503907 7.503906-7.503907h14.671876c4.144531 0 7.503906 3.359375 7.503906 7.503907 0 4.144531-3.359375 7.503906-7.503906 7.503906zm0 0"/><path d="m340.355469 179.996094h-14.671875c-4.144532 0-7.503906-3.359375-7.503906-7.503906 0-4.144532 3.359374-7.503907 7.503906-7.503907h14.671875c4.144531 0 7.503906 3.359375 7.503906 7.503907 0 4.144531-3.359375 7.503906-7.503906 7.503906zm0 0"/><path d="m451.144531 179.996094h-14.671875c-4.144531 0-7.503906-3.359375-7.503906-7.503906 0-4.144532 3.359375-7.503907 7.503906-7.503907h14.671875c4.144531 0 7.503907 3.359375 7.503907 7.503907 0 4.144531-3.359376 7.503906-7.503907 7.503906zm0 0"/></g><path d="m96.414062 357.503906c0-85.578125 71.589844-155.203125 159.582032-155.203125 87.996094 0 159.585937 69.621094 159.585937 155.203125zm0 0" fill="#e98f5e"/><path d="m271.007812 202.992188c-4.941406-.453126-9.949218-.691407-15.011718-.691407-87.992188 0-159.582032 69.621094-159.582032 155.203125h30.023438c0-80.65625 63.589844-147.128906 144.570312-154.511718zm0 0" fill="#de8250"/><path d="m424.601562 357.503906c0 18.167969-14.730468 32.898438-32.898437 32.898438s-32.898437-14.730469-32.898437-32.898438c0-18.167968 14.730468-32.898437 32.898437-32.898437s32.898437 14.730469 32.898437 32.898437zm0 0" fill="#e2b09a"/><path d="m255.996094 279.902344c-81.082032-39.914063-113.714844 1.742187-125.523438 27.632812-6.554687 15.402344-10.179687 32.277344-10.179687 49.96875 0 72.53125 60.757812 131.324219 135.703125 131.324219 74.949218 0 135.707031-58.796875 135.707031-131.324219 0-17.695312-3.625-34.566406-10.179687-49.96875-11.808594-25.890625-44.441407-67.546875-125.527344-27.632812zm0 0" fill="#fac4ae"/><path d="m150.3125 357.503906c0-17.691406 3.625-34.566406 10.179688-49.96875 7.183593-15.746094 22.066406-37.320312 50.863281-42.835937-49.136719-8.015625-71.535157 22.339843-80.882813 42.835937-2.386718 5.605469-4.378906 11.410156-5.953125 17.375-1.324219-.195312-2.726562-.304687-4.226562-.304687-18.167969 0-32.898438 14.730469-32.898438 32.898437 0 18.167969 14.730469 32.898438 32.898438 32.898438 1.5 0 2.894531-.109375 4.214843-.304688 14.980469 56.761719 68.167969 98.730469 131.488282 98.730469 5.074218 0 10.082031-.277344 15.011718-.800781-67.882812-7.230469-120.695312-62.90625-120.695312-130.523438zm0 0" fill="#e2b09a"/><path d="m329.222656 392.472656h-17.125c-4.144531 0-7.503906-3.359375-7.503906-7.503906s3.359375-7.503906 7.503906-7.503906h17.125c4.144532 0 7.503906 3.359375 7.503906 7.503906s-3.359374 7.503906-7.503906 7.503906zm0 0" fill="#ff7f85"/><path d="m199.898438 392.472656h-17.125c-4.144532 0-7.503907-3.359375-7.503907-7.503906s3.359375-7.503906 7.503907-7.503906h17.125c4.144531 0 7.503906 3.359375 7.503906 7.503906s-3.359375 7.503906-7.503906 7.503906zm0 0" fill="#ff7f85"/><path d="m328.34375 366.488281v-12.570312c0-4.144531-3.359375-7.507813-7.507812-7.507813-4.144532 0-7.503907 3.363282-7.503907 7.507813v12.570312c0 4.144531 3.359375 7.507813 7.503907 7.507813 4.148437 0 7.507812-3.363282 7.507812-7.507813zm0 0"/><path d="m199.019531 366.488281v-12.570312c0-4.144531-3.363281-7.507813-7.507812-7.507813s-7.503907 3.363282-7.503907 7.507813v12.570312c0 4.144531 3.359376 7.507813 7.503907 7.507813s7.507812-3.363282 7.507812-7.507813zm0 0"/><path d="m256.175781 391.765625c6.671875 0 12.949219-2.800781 17.214844-7.683594 2.730469-3.121093 2.410156-7.863281-.710937-10.589843-3.121094-2.730469-7.863282-2.410157-10.589844.710937-1.417969 1.621094-3.570313 2.550781-5.914063 2.550781s-4.496093-.929687-5.914062-2.550781c-2.730469-3.121094-7.472657-3.441406-10.589844-.710937-3.121094 2.726562-3.441406 7.46875-.710937 10.589843 4.265624 4.882813 10.539062 7.683594 17.214843 7.683594zm0 0"/><path d="m179.152344 162.164062c4.144531 0 7.507812-3.359374 7.507812-7.503906v-10.773437c0-4.144531-3.363281-7.503907-7.507812-7.503907-4.144532 0-7.503906 3.359376-7.503906 7.503907v10.773437c0 4.144532 3.359374 7.503906 7.503906 7.503906zm0 0"/><path d="m68.363281 162.164062c4.144531 0 7.507813-3.359374 7.507813-7.503906v-10.773437c0-4.144531-3.363282-7.503907-7.507813-7.503907s-7.503906 3.359376-7.503906 7.503907v10.773437c0 4.144532 3.359375 7.503906 7.503906 7.503906zm0 0"/><path d="m138.605469 159.847656c-3.121094-2.726562-7.859375-2.410156-10.589844.710938-1.007813 1.15625-2.5625 1.820312-4.257813 1.820312-1.695312 0-3.246093-.664062-4.253906-1.820312-2.730468-3.121094-7.46875-3.4375-10.589844-.710938-3.121093 2.730469-3.441406 7.46875-.714843 10.589844 3.863281 4.417969 9.53125 6.953125 15.558593 6.953125 6.027344 0 11.699219-2.535156 15.558594-6.953125 2.730469-3.121094 2.410156-7.863281-.710937-10.589844zm0 0"/><path d="m333.199219 162.164062c4.144531 0 7.503906-3.359374 7.503906-7.503906v-10.773437c0-4.144531-3.359375-7.503907-7.503906-7.503907-4.148438 0-7.507813 3.359376-7.507813 7.503907v10.773437c0 4.144532 3.359375 7.503906 7.507813 7.503906zm0 0"/><path d="m443.984375 162.164062c4.144531 0 7.507813-3.359374 7.507813-7.503906v-10.773437c0-4.144531-3.363282-7.503907-7.507813-7.503907s-7.503906 3.359376-7.503906 7.503907v10.773437c0 4.144532 3.359375 7.503906 7.503906 7.503906zm0 0"/><path d="m388.589844 177.386719c6.027344 0 11.699218-2.53125 15.5625-6.949219 2.726562-3.121094 2.40625-7.863281-.714844-10.589844-3.121094-2.726562-7.859375-2.410156-10.589844.710938-1.007812 1.15625-2.5625 1.816406-4.257812 1.816406-1.691406 0-3.246094-.660156-4.253906-1.816406-2.730469-3.121094-7.46875-3.4375-10.589844-.710938-3.121094 2.726563-3.441406 7.46875-.714844 10.589844 3.863281 4.417969 9.535156 6.949219 15.558594 6.949219zm0 0"/><path d="m2.742188 50.148438c-1.820313 24.601562-2.742188 57.171874-2.742188 96.8125 0 64.148437 52.175781 116.703124 117.535156 119.859374-12.960937 18.75-21.855468 40.007813-25.90625 62.429688-7.144531 7.289062-11.558594 17.261719-11.558594 28.253906 0 21.808594 17.367188 39.625 39 40.367188 7 22.484375 19.878907 42.96875 37.914063 59.765625 3.03125 2.824219 7.78125 2.65625 10.609375-.378907 2.824219-3.035156 2.652344-7.78125-.378906-10.605468-17.3125-16.121094-29.296875-36.03125-35.144532-57.863282-6.859374-25.613281-5.378906-53.9375 5.460938-78.25 5.554688-12.457031 14.449219-23.917968 26.167969-31.085937 27.800781-17.007813 62.257812-6.046875 89.164062 7.183594 2.046875 1.007812 4.582031 1.011719 6.628907 0 .023437-.011719.046874-.023438.070312-.035157 26.726562-13.222656 61.433594-24.035156 89.09375-7.144531 16.960938 10.402344 26.78125 28.605469 31.738281 47.347657 4.828125 18.261718 5.242188 37.617187 1.269531 56.078124-12.15625 56.144532-63.800781 98.445313-125.488281 98.445313-23.441406 0-46.375-6.171875-66.320312-17.839844-3.578125-2.09375-8.175781-.890625-10.269531 2.683594-2.09375 3.578125-.890626 8.175781 2.6875 10.269531 22.242187 13.015625 47.796874 19.894532 73.90625 19.894532 64.484374 0 119.148437-41.539063 137.027343-98.460938 21.664063-.703125 39.078125-18.535156 39.078125-40.371094 0-10.992187-4.417968-20.964844-11.5625-28.257812-4.050781-22.417969-12.941406-43.671875-25.898437-62.417969 30.675781-1.46875 59.308593-13.734375 81.191406-34.917969 40.242187-38.960937 47.921875-102.347656 17.007813-149.324218 11.664062-8.492188 18.851562-22.210938 18.851562-36.933594 0-25.171875-20.476562-45.652344-45.648438-45.652344-20.144531 0-37.492187 13.101562-43.441406 31.628906-10.882812-3.039062-22.355468-4.671875-34.195312-4.671875-18.953125 0-37.148438 4.050781-54.082032 12.042969-3.75 1.769531-5.355468 6.242188-3.585937 9.988281 1.769531 3.75 6.242187 5.355469 9.992187 3.585938 14.914063-7.035157 30.957032-10.605469 47.675782-10.605469 53.128906 0 97.933594 37.082031 107.054687 86.414062-16.5-7.96875-30.578125-21.042968-41.285156-35.78125-3.285156-4.507812-8.59375-7.472656-14.167969-7.851562-4.058594-.277344-7.9375.933594-11.875 1.703125-14.351562 2.792969-37.832031 6.300781-66.117187 6.554687-19.421875.171876-37.867188 5.246094-54.6875 14.917969-9.074219 5.214844-17.429688 11.492188-25.316407 18.347657-.089843.082031-.183593.164062-.273437.242187 4.722656-23.011719 17.34375-44.007813 36.203125-59.515625 3.199219-2.632812 3.660156-7.359375 1.027344-10.5625-2.632813-3.203125-7.363282-3.664062-10.5625-1.03125-27.808594 22.871094-43.753906 56.242188-43.753906 91.558594 0 16.960937 3.691406 33.621094 10.75 48.941406-6.417969-.734375-12.894532-1.113281-19.410157-1.113281-6.511719 0-12.992187.378906-19.40625 1.113281 6.953125-15.101562 10.632813-31.515625 10.738281-48.28125.019532-.21875.03125-.4375.03125-.664062 0-.1875-.007812-.375-.019531-.558594-.085937-52.195313-12.492187-87.789063-37.914062-108.800782-25.191407-20.820312-59.109375-23.488281-85.847657-23.488281-23.730468 0-48.027343-1.4375-72.210937-4.269531-24.367187-2.847656-46.992187 15.824219-48.804687 40.304688zm92.335937 307.355468c0-7.605468 3.363281-14.441406 8.679687-19.097656 3.265626-2.863281 7.246094-4.839844 11.5-5.734375-.566406 3.039063-1.027343 6.101563-1.386718 9.179687-1.554688 13.472657-1.105469 27.164063 1.359375 40.5-11.496094-2.421874-20.152344-12.640624-20.152344-24.847656zm302.011719 24.855469c.222656-1.191406.425781-2.386719.613281-3.585937 1.933594-12.199219 2.195313-24.65625.773437-36.929688-.355468-3.078125-.816406-6.132812-1.382812-9.171875.328125.070313.660156.144531.984375.230469 11.074219 2.792968 19.195313 13.078125 19.195313 24.601562 0 12.214844-8.671876 22.445313-20.183594 24.855469zm69.132812-367.347656c16.894532 0 30.640625 13.742187 30.640625 30.636719 0 9.957031-4.890625 19.226562-12.824219 24.917968-12.6875-14.90625-28.765624-26.550781-47.054687-34.082031 3.910156-12.5625 15.625-21.472656 29.238281-21.472656zm-172.078125 184.027343c-8.898437-15.015624-13.796875-31.957031-14.265625-49.328124 8.207032-9.175782 17.605469-17.339844 27.839844-24.179688 15.132812-10.117188 32.820312-17.5 51.261719-17.5 35.894531 0 64.855469-5.15625 78.917969-8.226562 1.628906-.355469 3.351562.296874 4.316406 1.628906 13.867187 19.054687 32.609375 35.53125 54.867187 43.90625.082031.03125.164063.066406.25.097656.007813.5.011719 1.011719.011719 1.527344 0 28.007812-11.28125 54.339844-31.769531 74.15625-21.828125 21.125-51.339844 32.195312-82.445313 30.710937-.769531-.875-1.554687-1.746093-2.34375-2.605469-16.535156-18.015624-37.011718-32.261718-59.617187-41.578124-8.753907-3.605469-17.789063-6.507813-27.023438-8.609376zm27.101563 25.015626c18.996094 8.757812 36.183594 21.441406 50.074218 37.089843.039063.046875.082032.089844.121094.136719 14.738282 16.640625 25.503906 36.246094 31.449219 57.347656-.097656-.027344-.195313-.046875-.296875-.074218-3.050781-.835938-6.207031-1.324219-9.371094-1.429688-1.328125-4.230469-2.863281-8.410156-4.617187-12.53125-8.214844-19.300781-23.773438-35.9375-43.503907-43.585938-23.34375-9.050781-49.3125-4.945312-72.183593 3.488282-4.386719 1.617187-15.476563 6.472656-16.742188 7.074218-6.589843-3.117187-13.359375-5.910156-20.242187-8.300781-21.832032-7.597656-46.636719-10.808593-68.691406-2.257812-24.4375 9.472656-40.480469 31.78125-48.117188 56.113281-3.164062.105469-6.316406.597656-9.371094 1.429688-.097656.027343-.199218.046874-.296875.074218 5.949219-21.101562 16.71875-40.710937 31.453125-57.351562.039063-.039063.074219-.082032.109375-.121094 14.050781-15.589844 31.023438-28.28125 50.089844-37.101562 40.894531-18.914063 89.242187-18.851563 130.136719 0zm-130.066406-16.402344c-23.542969 9.730468-45.046876 24.945312-61.957032 44.175781-1.824218.089844-3.652344.132813-5.464844.132813-59.929687 0-108.695312-47.054688-108.746093-104.910157.390625-10.53125 6.539062-20.800781 13.558593-28.328125 17.816407-19.109375 50.734376-29.210937 95.1875-29.210937 44.457032 0 77.375 10.101562 95.195313 29.210937 6.914063 7.417969 13.207031 17.921875 13.554687 28.335938-.015624 18.300781-4.949218 36.203125-14.300781 51.980468-9.234375 2.101563-18.28125 4.996094-27.027343 8.613282zm-173.46875-156.398438c1.183593-16 16.179687-28.363281 32.089843-26.5 24.761719 2.898438 49.644531 4.371094 73.957031 4.371094 35.980469 0 59.503907 6.183594 76.28125 20.050781 15.285157 12.632813 25.074219 32.082031 29.578126 58.972657-26.46875-28.121094-69.253907-33.648438-105.859376-33.648438-50.171874 0-86.191406 11.765625-107.066406 34.964844-.476562.53125-.945312 1.066406-1.394531 1.597656.394531-23.394531 1.203125-43.421875 2.414063-59.808594zm0 0"/></svg>